<svg width="19" height="21" viewBox="0 0 19 21" fill="none" xmlns="http://www.w3.org/2000/svg">
<g filter="url(#filter0_d_10_16)">
<path d="M6.10714 0C7.23103 0 8.14286 0.923398 8.14286 2.0625V6.1875C8.14286 7.32617 7.23103 8.25 6.10714 8.25H2.03571C0.911406 8.25 0 7.32617 0 6.1875V2.0625C0 0.923398 0.911406 0 2.03571 0H6.10714ZM5.42857 2.75H2.71429V5.5H5.42857V2.75ZM6.10714 11C7.23103 11 8.14286 11.9238 8.14286 13.0625V17.1875C8.14286 18.3262 7.23103 19.25 6.10714 19.25H2.03571C0.911406 19.25 0 18.3262 0 17.1875V13.0625C0 11.9238 0.911406 11 2.03571 11H6.10714ZM5.42857 13.75H2.71429V16.5H5.42857V13.75ZM10.8571 2.0625C10.8571 0.923398 11.769 0 12.8929 0H16.9643C18.0882 0 19 0.923398 19 2.0625V6.1875C19 7.32617 18.0882 8.25 16.9643 8.25H12.8929C11.769 8.25 10.8571 7.32617 10.8571 6.1875V2.0625ZM13.5714 5.5H16.2857V2.75H13.5714V5.5ZM14.9286 17.875H16.2857V19.25H14.9286V17.875ZM19 19.25H17.6429V17.875H19V19.25ZM17.6429 11H19V16.5H14.9286V15.125H13.5714V19.25H10.8571V11H14.9286V12.375H17.6429V11Z" fill="#9DD2B4"/>
</g>
<defs>
<filter id="filter0_d_10_16" x="0" y="0" width="19" height="20.25" filterUnits="userSpaceOnUse" color-interpolation-filters="sRGB">
<feFlood flood-opacity="0" result="BackgroundImageFix"/>
<feColorMatrix in="SourceAlpha" type="matrix" values="0 0 0 0 0 0 0 0 0 0 0 0 0 0 0 0 0 0 127 0" result="hardAlpha"/>
<feOffset dy="1"/>
<feComposite in2="hardAlpha" operator="out"/>
<feColorMatrix type="matrix" values="0 0 0 0 0 0 0 0 0 0 0 0 0 0 0 0 0 0 0.25 0"/>
<feBlend mode="normal" in2="BackgroundImageFix" result="effect1_dropShadow_10_16"/>
<feBlend mode="normal" in="SourceGraphic" in2="effect1_dropShadow_10_16" result="shape"/>
</filter>
</defs>
</svg>
